<?xml version="1.0" encoding="UTF-8" standalone="no"?>
<svg
   width="700pt"
   height="700pt"
   version="1.1"
   viewBox="0 0 700 700"
   id="svg147"
   sodipodi:docname="noun-crystal-1998216.svg"
   inkscape:version="1.1.2 (0a00cf5339, 2022-02-04, custom)"
   xmlns:inkscape="http://www.inkscape.org/namespaces/inkscape"
   xmlns:sodipodi="http://sodipodi.sourceforge.net/DTD/sodipodi-0.dtd"
   xmlns="http://www.w3.org/2000/svg"
   xmlns:svg="http://www.w3.org/2000/svg">
  <sodipodi:namedview
     id="namedview149"
     pagecolor="#ffffff"
     bordercolor="#666666"
     borderopacity="1.0"
     inkscape:pageshadow="2"
     inkscape:pageopacity="0.0"
     inkscape:pagecheckerboard="0"
     inkscape:document-units="pt"
     showgrid="false"
     inkscape:zoom="0.77892857"
     inkscape:cx="466.02476"
     inkscape:cy="466.66667"
     inkscape:window-width="1920"
     inkscape:window-height="1080"
     inkscape:window-x="0"
     inkscape:window-y="0"
     inkscape:window-maximized="1"
     inkscape:current-layer="g145" />
  <defs
     id="defs65">
    <symbol
       id="u"
       overflow="visible">
      <path
         d="m20.469-1.2188c-1.0547 0.54297-2.1523 0.95312-3.2969 1.2344-1.1484 0.28125-2.3398 0.42188-3.5781 0.42188-3.7109 0-6.6523-1.0352-8.8281-3.1094-2.168-2.082-3.25-4.8984-3.25-8.4531 0-3.5508 1.082-6.3633 3.25-8.4375 2.1758-2.082 5.1172-3.125 8.8281-3.125 1.2383 0 2.4297 0.14062 3.5781 0.42188 1.1445 0.28125 2.2422 0.69531 3.2969 1.2344v4.6094c-1.0625-0.71875-2.1094-1.2422-3.1406-1.5781-1.0312-0.34375-2.1211-0.51562-3.2656-0.51562-2.0547 0-3.668 0.65625-4.8438 1.9688-1.168 1.3125-1.75 3.1211-1.75 5.4219 0 2.3047 0.58203 4.1094 1.75 5.4219 1.1758 1.3125 2.7891 1.9688 4.8438 1.9688 1.1445 0 2.2344-0.16406 3.2656-0.5 1.0312-0.34375 2.0781-0.875 3.1406-1.5938z"
         id="path2" />
    </symbol>
    <symbol
       id="c"
       overflow="visible">
      <path
         d="m14.984-12.156c-0.46875-0.21875-0.9375-0.37891-1.4062-0.48438-0.46094-0.10156-0.92188-0.15625-1.3906-0.15625-1.375 0-2.4336 0.44531-3.1719 1.3281-0.74219 0.875-1.1094 2.1328-1.1094 3.7656v7.7031h-5.3438v-16.719h5.3438v2.75c0.6875-1.0938 1.4727-1.8906 2.3594-2.3906 0.89453-0.5 1.9609-0.75 3.2031-0.75 0.1875 0 0.38281 0.007813 0.59375 0.015625 0.20703 0.011719 0.50781 0.042969 0.90625 0.09375z"
         id="path5" />
    </symbol>
    <symbol
       id="b"
       overflow="visible">
      <path
         d="m19.25-8.4062v1.5312h-12.484c0.125 1.25 0.57031 2.1875 1.3438 2.8125 0.78125 0.625 1.8672 0.9375 3.2656 0.9375 1.125 0 2.2734-0.16406 3.4531-0.5 1.1758-0.33203 2.3828-0.83594 3.625-1.5156v4.125c-1.2617 0.48047-2.5234 0.83984-3.7812 1.0781-1.2617 0.25-2.5273 0.375-3.7969 0.375-3.0234 0-5.3711-0.76562-7.0469-2.2969-1.6797-1.5391-2.5156-3.7031-2.5156-6.4844 0-2.7266 0.82031-4.8672 2.4688-6.4219 1.6445-1.5625 3.9102-2.3438 6.7969-2.3438 2.625 0 4.7227 0.79297 6.2969 2.375 1.582 1.5742 2.375 3.6836 2.375 6.3281zm-5.4844-1.7656c0-1.0195-0.29688-1.8359-0.89062-2.4531-0.59375-0.625-1.3711-0.9375-2.3281-0.9375-1.0312 0-1.8711 0.29297-2.5156 0.875-0.64844 0.58594-1.0547 1.4219-1.2188 2.5156z"
         id="path8" />
    </symbol>
    <symbol
       id="a"
       overflow="visible">
      <path
         d="m10.062-7.5156c-1.1172 0-1.9531 0.1875-2.5156 0.5625s-0.84375 0.93359-0.84375 1.6719c0 0.67969 0.22266 1.2109 0.67188 1.5938 0.45703 0.375 1.0859 0.5625 1.8906 0.5625 1.0078 0 1.8516-0.35938 2.5312-1.0781 0.6875-0.71875 1.0312-1.6172 1.0312-2.7031v-0.60938zm8.1562-2.0156v9.5312h-5.3906v-2.4844c-0.71094 1.0234-1.5117 1.7656-2.4062 2.2344-0.89844 0.45703-1.9922 0.6875-3.2812 0.6875-1.7305 0-3.1367-0.50391-4.2188-1.5156-1.0742-1.0078-1.6094-2.3203-1.6094-3.9375 0-1.957 0.67188-3.3945 2.0156-4.3125 1.3516-0.91406 3.4727-1.375 6.3594-1.375h3.1406v-0.42188c0-0.84375-0.33594-1.457-1-1.8438-0.66797-0.39453-1.7031-0.59375-3.1094-0.59375-1.1484 0-2.2148 0.11719-3.2031 0.34375-0.98047 0.23047-1.8906 0.57422-2.7344 1.0312v-4.0781c1.1328-0.28125 2.2812-0.48828 3.4375-0.625 1.1562-0.14453 2.3125-0.21875 3.4688-0.21875 3.0078 0 5.1797 0.59375 6.5156 1.7812 1.3438 1.1875 2.0156 3.1211 2.0156 5.7969z"
         id="path11" />
    </symbol>
    <symbol
       id="d"
       overflow="visible">
      <path
         d="m8.4062-21.453v4.7344h5.5v3.8281h-5.5v7.0781c0 0.78125 0.14844 1.3086 0.45312 1.5781 0.3125 0.27344 0.92578 0.40625 1.8438 0.40625h2.75v3.8281h-4.5938c-2.1055 0-3.6016-0.4375-4.4844-1.3125-0.875-0.88281-1.3125-2.3828-1.3125-4.5v-7.0781h-2.6562v-3.8281h2.6562v-4.7344z"
         id="path14" />
    </symbol>
    <symbol
       id="l"
       overflow="visible">
      <path
         d="m13.938-14.266v-8.9531h5.375v23.219h-5.375v-2.4219c-0.74219 0.99219-1.5547 1.7148-2.4375 2.1719-0.88672 0.45703-1.9062 0.6875-3.0625 0.6875-2.0625 0-3.7578-0.81641-5.0781-2.4531-1.3242-1.6445-1.9844-3.7539-1.9844-6.3281 0-2.5703 0.66016-4.6758 1.9844-6.3125 1.3203-1.6328 3.0156-2.4531 5.0781-2.4531 1.1445 0 2.1602 0.23047 3.0469 0.6875 0.89453 0.46094 1.7109 1.1797 2.4531 2.1562zm-3.5156 10.812c1.1328 0 2.0039-0.41406 2.6094-1.25 0.60156-0.83203 0.90625-2.0469 0.90625-3.6406s-0.30469-2.8047-0.90625-3.6406c-0.60547-0.83203-1.4766-1.25-2.6094-1.25-1.1367 0-2.0078 0.41797-2.6094 1.25-0.60547 0.83594-0.90625 2.0469-0.90625 3.6406s0.30078 2.8086 0.90625 3.6406c0.60156 0.83594 1.4727 1.25 2.6094 1.25z"
         id="path17" />
    </symbol>
    <symbol
       id="k"
       overflow="visible">
      <path
         d="m11.469-3.4531c1.1328 0 2.0039-0.41406 2.6094-1.25 0.60156-0.83203 0.90625-2.0469 0.90625-3.6406s-0.30469-2.8047-0.90625-3.6406c-0.60547-0.83203-1.4766-1.25-2.6094-1.25-1.1484 0-2.0273 0.42188-2.6406 1.2656-0.61719 0.83594-0.92188 2.043-0.92188 3.625 0 1.5859 0.30469 2.7969 0.92188 3.6406 0.61328 0.83594 1.4922 1.25 2.6406 1.25zm-3.5625-10.812c0.73828-0.97656 1.5547-1.6953 2.4531-2.1562 0.89453-0.45703 1.9258-0.6875 3.0938-0.6875 2.0508 0 3.7383 0.82031 5.0625 2.4531 1.3203 1.6367 1.9844 3.7422 1.9844 6.3125 0 2.5742-0.66406 4.6836-1.9844 6.3281-1.3242 1.6367-3.0117 2.4531-5.0625 2.4531-1.168 0-2.1992-0.23047-3.0938-0.6875-0.89844-0.46875-1.7148-1.1914-2.4531-2.1719v2.4219h-5.3438v-23.219h5.3438z"
         id="path20" />
    </symbol>
    <symbol
       id="f"
       overflow="visible">
      <path
         d="m0.375-16.719h5.3438l4.4844 11.344 3.8281-11.344h5.3438l-7.0312 18.297c-0.71094 1.8633-1.5312 3.1641-2.4688 3.9062-0.9375 0.73828-2.1836 1.1094-3.7344 1.1094h-3.0781v-3.5h1.6719c0.90625 0 1.5625-0.14844 1.9688-0.4375 0.41406-0.29297 0.73828-0.80859 0.96875-1.5469l0.14062-0.46875z"
         id="path23" />
    </symbol>
    <symbol
       id="j"
       overflow="visible">
      <path
         d="m2.8125-22.281h7.3125l5.0625 11.922 5.1094-11.922h7.2969v22.281h-5.4375v-16.297l-5.125 12.016h-3.6406l-5.1406-12.016v16.297h-5.4375z"
         id="path26" />
    </symbol>
    <symbol
       id="t"
       overflow="visible">
      <path
         d="m2.5625-16.719h5.3438v16.719h-5.3438zm0-6.5h5.3438v4.3594h-5.3438z"
         id="path29" />
    </symbol>
    <symbol
       id="s"
       overflow="visible">
      <path
         d="m1.7188-22.281h18.719v3.4844l-11.953 14.453h12.297v4.3438h-19.406v-3.4844l11.953-14.453h-11.609z"
         id="path32" />
    </symbol>
    <symbol
       id="i"
       overflow="visible">
      <path
         d="m18.062-13.938c0.67578-1.0312 1.4766-1.8164 2.4062-2.3594 0.92578-0.53906 1.9453-0.8125 3.0625-0.8125 1.9141 0 3.375 0.59375 4.375 1.7812 1.0078 1.1797 1.5156 2.8984 1.5156 5.1562v10.172h-5.3594v-8.7188c0.007812-0.125 0.015625-0.25391 0.015625-0.39062v-0.60938c0-1.1758-0.17188-2.0312-0.51562-2.5625-0.34375-0.53906-0.90625-0.8125-1.6875-0.8125-1.0117 0-1.793 0.42188-2.3438 1.2656-0.55469 0.83594-0.83984 2.043-0.85938 3.625v8.2031h-5.375v-8.7188c0-1.8438-0.16406-3.0312-0.48438-3.5625-0.3125-0.53906-0.875-0.8125-1.6875-0.8125-1.0312 0-1.8281 0.42188-2.3906 1.2656-0.55469 0.84375-0.82812 2.0469-0.82812 3.6094v8.2188h-5.375v-16.719h5.375v2.4531c0.65625-0.94531 1.4102-1.6562 2.2656-2.125 0.85156-0.47656 1.7891-0.71875 2.8125-0.71875 1.1562 0 2.1758 0.27734 3.0625 0.82812 0.88281 0.55469 1.5547 1.3359 2.0156 2.3438z"
         id="path35" />
    </symbol>
    <symbol
       id="h"
       overflow="visible">
      <path
         d="m16.078-16.188v4.3594c-0.73047-0.5-1.4609-0.86719-2.1875-1.1094-0.73047-0.23828-1.4922-0.35938-2.2812-0.35938-1.4922 0-2.6523 0.4375-3.4844 1.3125-0.83594 0.86719-1.25 2.0781-1.25 3.6406s0.41406 2.7812 1.25 3.6562c0.83203 0.86719 1.9922 1.2969 3.4844 1.2969 0.83203 0 1.625-0.125 2.375-0.375s1.4453-0.61328 2.0938-1.0938v4.3594c-0.84375 0.3125-1.6992 0.54688-2.5625 0.70312-0.85547 0.15625-1.7148 0.23438-2.5781 0.23438-3.0117 0-5.3711-0.76953-7.0781-2.3125-1.6992-1.5508-2.5469-3.707-2.5469-6.4688 0-2.75 0.84766-4.8945 2.5469-6.4375 1.707-1.5508 4.0664-2.3281 7.0781-2.3281 0.875 0 1.7344 0.078125 2.5781 0.23438 0.85156 0.14844 1.707 0.375 2.5625 0.6875z"
         id="path38" />
    </symbol>
    <symbol
       id="g"
       overflow="visible">
      <path
         d="m19.375-10.172v10.172h-5.375v-7.7656c0-1.457-0.039062-2.457-0.10938-3-0.0625-0.55078-0.17188-0.95703-0.32812-1.2188-0.21094-0.34375-0.49609-0.61328-0.85938-0.8125-0.35547-0.19531-0.76172-0.29688-1.2188-0.29688-1.1172 0-1.9922 0.43359-2.625 1.2969-0.63672 0.86719-0.95312 2.0586-0.95312 3.5781v8.2188h-5.3438v-23.219h5.3438v8.9531c0.8125-0.97656 1.6641-1.6953 2.5625-2.1562 0.90625-0.45703 1.9062-0.6875 3-0.6875 1.9375 0 3.4062 0.59375 4.4062 1.7812 1 1.1797 1.5 2.8984 1.5 5.1562z"
         id="path41" />
    </symbol>
    <symbol
       id="r"
       overflow="visible">
      <path
         d="m13.562-23.219v3.5h-2.9531c-0.76172 0-1.293 0.14062-1.5938 0.42188-0.29297 0.27344-0.4375 0.74609-0.4375 1.4219v1.1562h4.5625v3.8281h-4.5625v12.891h-5.3438v-12.891h-2.6562v-3.8281h2.6562v-1.1562c0-1.8203 0.50391-3.1641 1.5156-4.0312 1.0195-0.875 2.5938-1.3125 4.7188-1.3125z"
         id="path44" />
    </symbol>
    <symbol
       id="e"
       overflow="visible">
      <path
         d="m10.516-13.297c-1.1797 0-2.0781 0.42969-2.7031 1.2812-0.625 0.84375-0.9375 2.0703-0.9375 3.6719 0 1.6055 0.3125 2.8359 0.9375 3.6875 0.625 0.84375 1.5234 1.2656 2.7031 1.2656 1.1641 0 2.0547-0.42188 2.6719-1.2656 0.625-0.85156 0.9375-2.082 0.9375-3.6875 0-1.6016-0.3125-2.8281-0.9375-3.6719-0.61719-0.85156-1.5078-1.2812-2.6719-1.2812zm0-3.8125c2.875 0 5.1172 0.77734 6.7344 2.3281 1.625 1.5547 2.4375 3.6992 2.4375 6.4375 0 2.75-0.8125 4.9023-2.4375 6.4531-1.6172 1.5547-3.8594 2.3281-6.7344 2.3281-2.8867 0-5.1406-0.77344-6.7656-2.3281-1.625-1.5508-2.4375-3.7031-2.4375-6.4531 0-2.7383 0.8125-4.8828 2.4375-6.4375 1.625-1.5508 3.8789-2.3281 6.7656-2.3281z"
         id="path47" />
    </symbol>
    <symbol
       id="q"
       overflow="visible">
      <path
         d="m2.8125-22.281h6.4062l8.1094 15.281v-15.281h5.4375v22.281h-6.4062l-8.1094-15.281v15.281h-5.4375z"
         id="path50" />
    </symbol>
    <symbol
       id="p"
       overflow="visible">
      <path
         d="m2.3906-6.5v-10.219h5.375v1.6719c0 0.90625-0.007813 2.0469-0.015625 3.4219-0.011719 1.3672-0.015625 2.2773-0.015625 2.7344 0 1.3438 0.03125 2.3125 0.09375 2.9062 0.070313 0.58594 0.19141 1.0117 0.35938 1.2812 0.21875 0.35547 0.50391 0.625 0.85938 0.8125 0.35156 0.1875 0.75781 0.28125 1.2188 0.28125 1.1133 0 1.9883-0.42578 2.625-1.2812 0.63281-0.85156 0.95312-2.0469 0.95312-3.5781v-8.25h5.3438v16.719h-5.3438v-2.4219c-0.80469 0.98047-1.6562 1.7031-2.5625 2.1719-0.89844 0.45703-1.8867 0.6875-2.9688 0.6875-1.9297 0-3.3984-0.59375-4.4062-1.7812-1.0117-1.1875-1.5156-2.9062-1.5156-5.1562z"
         id="path53" />
    </symbol>
    <symbol
       id="o"
       overflow="visible">
      <path
         d="m19.375-10.172v10.172h-5.375v-7.7969c0-1.4375-0.039062-2.4258-0.10938-2.9688-0.0625-0.55078-0.17188-0.95703-0.32812-1.2188-0.21094-0.34375-0.49609-0.61328-0.85938-0.8125-0.35547-0.19531-0.76172-0.29688-1.2188-0.29688-1.1172 0-1.9922 0.43359-2.625 1.2969-0.63672 0.86719-0.95312 2.0586-0.95312 3.5781v8.2188h-5.3438v-16.719h5.3438v2.4531c0.8125-0.97656 1.6641-1.6953 2.5625-2.1562 0.90625-0.45703 1.9062-0.6875 3-0.6875 1.9375 0 3.4062 0.59375 4.4062 1.7812 1 1.1797 1.5 2.8984 1.5 5.1562z"
         id="path56" />
    </symbol>
    <symbol
       id="n"
       overflow="visible">
      <path
         d="m2.8125-22.281h9.5312c2.832 0 5.0039 0.63281 6.5156 1.8906 1.5195 1.2617 2.2812 3.0547 2.2812 5.375 0 2.3438-0.76172 4.1484-2.2812 5.4062-1.5117 1.25-3.6836 1.875-6.5156 1.875h-3.7969v7.7344h-5.7344zm5.7344 4.1719v6.2188h3.1875c1.1133 0 1.9727-0.26953 2.5781-0.8125 0.60156-0.53906 0.90625-1.3125 0.90625-2.3125 0-0.98828-0.30469-1.75-0.90625-2.2812-0.60547-0.53906-1.4648-0.8125-2.5781-0.8125z"
         id="path59" />
    </symbol>
    <symbol
       id="m"
       overflow="visible">
      <path
         d="m2.5625-16.719h5.3438v16.422c0 2.2383-0.53906 3.9453-1.6094 5.125-1.0742 1.1758-2.6328 1.7656-4.6719 1.7656h-2.6406v-3.5h0.92188c1.0195 0 1.7188-0.23047 2.0938-0.6875 0.375-0.46094 0.5625-1.3594 0.5625-2.7031zm0-6.5h5.3438v4.3594h-5.3438z"
         id="path62" />
    </symbol>
  </defs>
  <g
     id="g145">
    <path
       d="m 219.90168,208.55221 c 0.23374,-4.25107 1.93319,-8.29259 4.81104,-11.4286 2.87784,-3.13588 6.75394,-5.18101 10.96599,-5.77999 -0.86676,-6.36925 0.7645,-12.831 4.55773,-18.01675 3.79332,-5.19086 9.45153,-8.71144 15.78662,-9.81678 0.33111,-5.42945 2.40065,-10.6056 5.89692,-14.76941 3.49627,-4.1683 8.23911,-7.09962 13.52783,-8.36564 0,-3.81764 -1.11997,-7.83984 0.30677,-10.49853 2.04513,-2.92172 4.97658,-5.09824 8.36564,-6.20857 4.21205,-1.39753 8.56048,-2.36649 12.97186,-2.88756 6.22801,-1.06153 12.49441,-1.89417 20.04741,-3.01908 -2.04999,-3.37448 -4.30455,-6.61757 -6.74908,-9.71942 -6.00886,-7.74236 -9.72428,-17.018244 -10.72254,-26.772692 -2.00623,-9.845946 -0.93005,-20.072347 3.07256,-29.289521 3.0677,-10.113835 8.00052,-19.560005 14.54005,-27.863439 10.67866,-11.545402 24.70711,-19.4527995 40.11976,-22.6091268 10.6202,-1.40725824 21.40618,0.8131906 30.60466,6.3059232 7.35766,3.4962676 13.50788,9.1107166 17.66147,16.1182116 4.15359,7.011983 6.12579,15.094774 5.66319,23.232414 -0.34572,4.416615 -1.75293,8.687131 -4.10983,12.44144 -6.40814,12.567967 -17.66147,21.980853 -31.15939,26.065879 -5.10322,1.801674 -10.75656,1.085878 -15.24561,-1.933189 -7.64985,-4.674655 -13.85817,-11.374994 -17.93447,-19.365539 -3.11643,-6.242597 -2.80479,-13.648747 0.8278,-19.604881 3.63265,-5.960124 10.07482,-9.626923 17.05315,-9.714558 4.83534,-0.267814 9.48082,1.933188 12.33909,5.84332 2.8584,3.910131 3.54501,8.998774 1.82599,13.527829 -2.62467,7.912883 -7.82999,8.604233 -14.3942,1.241701 1.39267,-0.516157 2.53703,-0.90085 3.64236,-1.368365 1.2125,-0.516157 2.3958,-1.110225 3.71542,-1.728626 -0.83755,-5.502505 -4.78174,-6.218289 -8.65784,-6.359525 -3.93444,-0.141212 -5.5414,2.566198 -6.77338,6.135516 v 0.0049 c -2.07929,5.010607 -0.86676,10.7906 3.05797,14.545034 14.00901,15.20198 25.73927,14.101254 38.96045,-3.12616 6.18899,-6.637014 8.84781,-15.830253 7.16294,-24.747003 -2.95575,-12.470772 -11.86191,-22.686452 -23.81581,-27.302519 -5.72153,-1.193009 -11.61845,-1.236838 -17.34983,-0.126602 -1.65071,0.04869 -3.27226,0.740154 -4.92783,0.895976 h -0.005 c -12.57794,1.275745 -23.95294,8.03941 -31.08708,18.479224 -9.93857,12.918255 -14.9053,28.977878 -14.00901,45.256898 -0.43825,9.880102 2.84867,19.560005 9.21294,27.12797 3.77861,4.01733 7.9226,7.67416 12.37811,10.92697 2.15234,1.23684 4.60161,1.85528 7.08017,1.79195 9.99204,0.5113 20.06736,0.1607 29.9714,1.31477 v 0.005 c 6.90976,1.38295 13.02047,5.36613 17.07683,11.13154 1.41698,1.69945 0.87649,5.35154 0.59406,8.03941 -0.54537,2.70257 -1.33907,5.3564 -2.36163,7.91774 13.44929,0.88137 24.57123,4.66979 25.50616,20.52485 2.54189,0.68659 5.1324,1.14432 7.7522,1.37323 8.01024,-0.0487 12.4857,5.79944 17.2526,10.62506 1.58739,2.56619 2.19123,5.61931 1.69945,8.59451 -0.60381,3.89068 1.23684,7.74721 4.63577,9.72914 5.20058,4.99116 8.93058,11.31653 10.78087,18.28476 8.92573,19.48271 16.93597,39.39425 26.21672,58.7012 6.82699,14.33063 14.53007,28.23243 23.05664,41.62438 4.57244,6.90004 6.31079,15.29921 4.84507,23.44683 -0.55512,3.8468 -0.0828,7.83497 -0.59407,11.6915 l 0.005,0.005 c -0.57946,6.39356 0.74502,12.81604 3.81277,18.45554 7.98581,17.13043 15.42636,34.52389 23.64628,51.54338 h -0.005 c 5.86763,12.61159 12.4463,24.87789 19.7071,36.7403 5.82873,8.7699 6.78797,19.90655 2.53703,29.54257 -7.82999,21.44981 -14.88161,43.18759 -22.09305,64.86053 -6.95351,20.89509 -13.91177,41.78893 -20.4326,62.82114 -2.18637,7.19698 -6.95352,13.3371 -13.3957,17.23265 -15.52858,10.15273 -30.63831,20.94869 -46.19182,31.05716 -17.97811,11.68664 -36.38004,22.71634 -54.31327,34.4653 v 0.005 c -4.65034,3.76403 -11.19,4.139 -16.23414,0.92032 -5.55112,-3.05311 -11.72553,-4.80617 -18.05539,-5.11295 -25.29176,-4.12442 -50.65706,-7.8154 -75.96377,-11.85218 -23.91429,-3.81278 -47.78869,-7.86901 -71.68304,-11.80843 -5.99428,-0.82294 -10.97572,-5.03018 -12.77739,-10.80531 -5.78972,-12.6652 -12.36353,-24.95643 -19.69214,-36.80263 -8.09302,-13.64875 -16.93597,-26.85496 -25.41392,-40.28431 -4.30941,-6.82699 -8.79908,-13.56647 -12.65523,-20.64203 v 0.005 c -1.65072,-3.17976 -2.5662,-6.68089 -2.683,-10.25993 -0.74016,-20.07235 -1.49976,-40.15841 -1.54364,-60.24447 -0.0292,-15.05114 1.07128,-30.10228 1.57767,-45.15467 0.80833,-23.95792 1.5728,-47.91585 2.29843,-71.87252 0.1266,-1.39267 0.10708,-2.79021 -0.0585,-4.17802 -1.35852,-11.12668 1.94777,-22.31618 9.13502,-30.91131 8.054,-11.97884 14.68091,-24.93649 21.62558,-37.6316 v -0.005 c 0.9544,-2.21554 1.1151,-4.6941 0.46259,-7.02171 -1.30017,-5.11781 -3.19434,-10.08952 -4.90352,-15.09976 v -0.005 c -6.08192,-15.86516 -4.77202,-33.61389 3.56445,-48.41697 3.52058,-7.21168 9.29085,-13.08903 16.43484,-16.74648 7.14836,-3.66182 15.2855,-4.90353 23.19751,-3.54003 1.47545,0.15095 2.96062,0.224 4.44579,0.21913 z M 471.78459,493.0829 c -3.18463,2.48829 -5.54627,4.23636 -7.80082,6.10622 -6.62243,5.50251 -12.95815,11.38958 -19.85295,16.52709 l 0.005,0.005 c -17.56923,13.14762 -35.79041,25.40395 -54.59125,36.72035 -24.07012,14.43284 -47.66653,29.65477 -71.46364,44.55009 -1.32449,0.8278 -2.57106,1.77251 -4.41662,3.05311 6.3887,7.30904 12.28562,14.29198 18.4356,21.04094 v 0.005 c 17.60787,18.5428 33.90558,38.29354 48.77224,59.10012 1.99165,2.35191 4.21205,4.49938 6.62242,6.42272 5.32226,-5.06907 10.26966,-9.1789 14.48645,-13.9367 6.45202,-7.27003 12.23688,-15.12968 18.5964,-22.48697 12.65523,-14.13615 22.97438,-30.20076 30.56103,-47.58924 6.17927,-14.8467 10.71768,-30.39523 15.65573,-45.73807 l -0.005,-0.005 c 1.59711,-5.29308 2.74633,-10.71767 3.42808,-16.20547 0.74015,-5.22003 0.77911,-10.53256 1.17353,-15.80657 1.30504,-10.53742 1.44129,-21.19177 0.39443,-31.76272 z M 397.13595,331.51434 c -8.62381,-12.43171 -16.65299,-24.06512 -24.74202,-35.66325 -7.94691,-11.39931 -15.83025,-22.84723 -23.96789,-34.11502 -6.02345,-8.34133 -12.4463,-16.39993 -18.62134,-24.63979 h 0.005 c -2.61008,-3.72028 -7.07531,-5.68264 -11.58442,-5.08852 -4.99116,0.36033 -10.03106,0.0389 -15.04616,0.034 -13.3184,-0.005 -26.63057,0 -40.63584,0 h 0.005 c -0.9398,4.65521 -1.4267,9.3882 -1.45599,14.13616 1.80167,17.98309 4.12441,35.91257 6.21342,53.86574 1.80168,15.48495 3.75431,30.95495 5.186,46.47356 0.42364,4.6016 1.86014,7.0753 6.4423,8.19523 9.7097,2.37622 19.28327,5.27363 28.97788,7.71318 13.66869,2.60509 26.91853,7.07531 39.3793,13.26979 3.01908,1.7189 5.05934,0.29217 7.27002,-1.87473 8.94031,-8.7699 18.12395,-17.30121 27.0594,-26.08083 5.14698,-5.05935 9.98718,-10.42548 15.51362,-16.22542 z M 188.07289,312.30463 c -3.65209,2.50773 -7.12891,5.25905 -10.40603,8.23911 -4.87436,4.95713 -9.23238,10.43034 -13.74598,15.738 -3.08727,3.00936 -5.03504,6.99254 -5.51709,11.27278 -0.48208,4.28024 0.5405,8.59937 2.88756,12.21257 19.09254,35.24939 37.42592,70.90393 56.12454,106.36773 1.74321,3.30143 4.02706,6.32051 6.40328,10.00663 5.94068,-6.49091 11.08766,-11.9544 16.04965,-17.57421 9.94829,-11.27278 19.92525,-22.52062 29.57249,-34.04645 l -0.005,-0.01 c 2.18637,-2.45912 3.45725,-5.59987 3.60335,-8.88671 -0.96902,-16.40492 -2.60509,-32.7712 -3.90527,-49.15743 0.0779,-2.58564 -1.63613,-4.87922 -4.13414,-5.5414 -2.38121,-0.77423 -4.64063,-1.89903 -7.00226,-2.73174 v -0.005 c -16.15187,-5.3953 -31.16936,-13.73227 -44.28707,-24.58619 -8.20495,-6.97795 -16.56573,-13.7759 -25.63705,-21.29898 z M 470.9955,479.20852 c -4.88408,1.28061 -9.45153,2.26914 -13.89307,3.67154 -20.42762,6.43258 -41.36634,11.1364 -62.5818,14.06261 -3.59848,0.36034 -6.92921,2.04999 -9.33958,4.74284 -8.32675,8.67729 -18.81082,14.98757 -30.38028,18.27978 -15.42137,4.2851 -31.82131,3.44266 -46.72661,-2.40552 -2.74146,-1.2806 -5.7411,-1.90875 -8.76491,-1.82598 -13.88809,2.4201 -27.68269,5.38071 -42.68522,8.38521 2.02082,3.48168 3.18463,5.92609 4.74771,8.08329 3.09699,4.2851 6.43743,8.39007 9.63178,12.60661 11.36041,15.01749 22.6191,30.11226 34.08634,45.04249 4.30455,5.60472 4.91325,5.61931 10.92212,1.865 26.88363,-16.81879 53.63138,-33.85697 80.59854,-50.54487 l -0.005,-0.005 c 25.08732,-15.54852 48.92307,-33.02924 71.28912,-52.28758 2.70257,-2.32274 5.1324,-4.28024 3.10185,-9.67067 z m -18.46925,-248.2055 -1.44627,0.0876 c -1.30991,8.14662 -2.53703,16.30271 -3.95402,24.43038 v 0.005 c -2.56619,17.08182 -9.10099,33.33092 -19.07882,47.43342 -1.48517,2.02568 -3.00936,4.01734 -4.52856,6.01373 -2.43955,2.8291 -2.66356,6.94379 -0.54538,10.01647 6.39842,11.40903 12.49941,22.98435 18.65998,34.52888 h 0.005 c 3.55473,5.98942 6.73437,12.193 9.52944,18.57147 7.46973,19.48272 14.47647,39.13995 21.52835,58.77849 4.38245,9.11558 10.32313,17.39346 17.55426,24.46403 0.67198,-6.23287 1.08588,-10.65435 1.63127,-15.05613 2.32274,-18.8158 4.96199,-37.59669 6.89505,-56.44615 0.84729,-8.278 0.1607,-16.70659 0.39443,-25.05865 0.29704,-10.5813 0.91059,-21.15312 1.18328,-31.73405 -0.0487,-1.9186 -0.55999,-3.79333 -1.49003,-5.46835 -3.07256,-5.93095 -6.45689,-11.69636 -9.5636,-17.61285 -8.1612,-15.51363 -16.35631,-31.01354 -24.30322,-46.63935 -4.40191,-8.64812 -8.32675,-17.53432 -12.47074,-26.31395 z m -302.80548,315.53301 1.97208,0.27756 66.96974,-65.91763 C 207.24371,455.95948 158.75345,367.2769 153.10522,361.22478 c -0.22886,2.35192 -0.50642,4.18289 -0.56972,6.01859 -0.55025,16.42487 -0.88137,32.85847 -1.61182,49.27336 -1.48517,33.37455 -3.87124,66.72541 -2.69771,100.16478 0.34086,9.95801 0.98849,19.90655 1.49489,29.85422 z m 159.23746,57.138 c -1.11509,0.14121 -2.21067,0.40416 -3.26739,0.77911 -29.06015,16.40991 -58.28735,32.54183 -85.95507,51.27536 v 0.005 c -1.32935,1.25143 -2.47371,2.68786 -3.38421,4.27051 11.8376,5.69722 149.95049,27.20026 161.09486,25.07735 -21.38623,-28.31595 -44.24343,-55.49253 -68.48432,-81.40757 z M 468.24556,457.1267 c -0.56485,-2.84369 -0.71093,-4.14873 -1.08588,-5.38558 -2.49315,-8.26342 -4.89866,-16.56074 -7.62068,-24.75074 -1.06641,-3.17004 -2.52719,-6.19398 -4.35329,-8.99379 -13.51786,-20.76793 -27.113,-41.48725 -40.79666,-62.14798 -3.77375,-5.70209 -7.88845,-11.17044 -12.21256,-17.26257 l -42.5643,43.9804 c 16.91103,18.00678 36.06839,33.32593 44.10257,57.41599 z M 254.2336,531.58461 c -1.47545,1.23197 -2.28372,1.62155 -2.66356,2.26428 -7.55249,12.66021 -15.0661,25.34536 -22.53557,38.05419 h -0.005 c -1.10049,1.94291 -1.96236,4.01247 -2.57106,6.16468 -4.2315,14.39919 -8.95976,28.69117 -12.3391,43.29355 h 0.005 c -2.81938,9.84594 -2.62953,20.31044 0.55025,30.04494 30.11725,-17.83225 59.80692,-35.4102 89.7484,-53.13525 z m 105.3605,-98.72748 h -0.005 c 0.68658,2.5419 1.22222,5.11782 1.61182,7.71319 1.10049,8.25369 1.53391,16.5757 1.29531,24.89783 -0.98362,7.97609 -5.5025,15.08605 -12.30506,19.36554 -6.80742,4.28024 -15.17331,5.27364 -22.78864,2.70258 -3.72514,-0.92032 -6.87074,-3.39891 -8.63352,-6.80256 -1.76278,-3.40377 -1.97695,-7.40154 -0.58434,-10.97572 0.99824,-3.03852 1.86987,-7.2067 6.19885,-6.66144 3.98804,0.50154 3.31614,4.49938 3.75431,7.42098 h -0.005 c 0.0243,0.27756 0.0146,0.55999 -0.0146,0.83755 -0.1753,4.29968 2.84368,5.91151 6.20856,6.67117 v -0.005 c 5.64362,0.46259 11.09738,-2.18637 14.22342,-6.90976 4.59674,-7.81054 5.66805,-17.20398 2.96061,-25.85147 -0.70607,-4.86937 -3.01908,-9.36876 -6.57368,-12.77241 -3.55474,-3.40863 -8.14163,-5.52681 -13.04042,-6.02344 -3.27226,-0.70608 -6.68089,0.24834 -9.11558,2.54675 -12.98682,12.22715 -24.13244,26.2753 -33.09282,41.69668 -2.54189,3.21865 -3.65695,7.33335 -3.09213,11.38958 0.56485,4.06109 2.7659,7.71318 6.08678,10.11383 3.77375,3.7057 8.05885,6.88047 12.00314,10.4109 3.71542,3.4914 8.96948,4.81103 13.89308,3.4914 18.26481,-3.82736 36.6281,-7.20669 54.89292,-11.0439 2.98492,-0.60868 5.73623,-2.05972 7.9226,-4.17802 11.31167,-11.66233 15.73302,-28.37454 11.65747,-44.10756 -0.54538,-2.09387 -1.98679,-3.8468 -3.93444,-4.78659 -9.35417,-3.18949 -18.8694,-5.90179 -29.52886,-9.13989 z m 138.75624,190.14006 c -0.75964,-16.55576 -1.55336,-32.66899 -2.22538,-48.79219 -0.86676,-20.86517 -1.63127,-41.73532 -2.45426,-62.60174 h -0.005 c -0.23373,-11.05849 -1.61182,-22.06811 -4.11955,-32.84475 -4.97172,1.03719 -8.20496,5.85304 -7.29446,10.84907 0.91059,21.17182 -0.5746,42.37855 -4.4312,63.22004 -8.06384,37.71387 -24.21097,73.23128 -47.3312,104.10395 -4.07567,5.64362 -8.34133,11.15099 -12.51935,16.72155 28.10652,-14.70085 54.98517,-31.6418 80.3754,-50.65207 z M 240.7332,529.88927 c -17.40343,0.9885 -80.30684,19.59491 -88.67261,25.83277 l -0.005,0.005 c 15.11471,28.32592 32.17658,55.56982 51.06593,81.52849 0.93981,-40.08985 17.3598,-73.88823 37.60667,-107.36125 z m 262.71563,82.84362 2.80966,0.36033 c 7.71804,-22.83725 15.82028,-45.55856 23.04168,-68.55164 7.18726,-22.90581 17.8173,-44.74954 22.3461,-69.44294 h -0.01 c -18.62133,2.24483 -37.44586,2.25456 -56.07592,0.034 2.09873,23.44683 3.33072,46.041 4.84506,68.63516 1.53878,22.95443 2.06957,45.97244 3.03853,68.96551 z M 339.98548,201.77458 c 24.31818,1.5728 44.3656,3.94915 64.14001,-1.45114 v 0.005 c 5.62904,-1.46572 11.1753,-3.24309 16.60438,-5.32225 3.63264,-1.07615 6.15496,-4.3776 6.2426,-8.16606 0.56486,-4.58216 -1.75792,-9.03281 -5.83846,-11.19487 -4.68924,-1.96236 -9.44667,-5.03018 -14.78313,-0.55511 -2.8048,2.28372 -6.06247,3.95401 -9.54901,4.90353 -14.49144,4.17802 -29.58621,5.88719 -44.64234,5.05448 -15.54853,-1.00797 -31.14442,-1.56794 -46.6194,-3.26253 -12.75745,-1.08102 -25.38899,-3.321 -37.74255,-6.69548 -3.20407,-1.24658 -6.70034,-1.55336 -10.07968,-0.88624 -3.37448,0.66712 -6.49091,2.28859 -8.9792,4.66493 -3.8761,2.52718 -5.90178,7.10448 -5.16643,11.67692 0.74015,4.56757 4.10497,8.27314 8.58479,9.45153 9.09127,3.62279 18.91802,5.00574 28.65626,4.03678 21.1631,-0.70607 42.31498,-1.60696 59.17366,-2.25942 z m -142.72035,99.75964 c 12.78238,16.01101 56.1208,45.10108 69.50153,46.96097 0.31652,-18.07035 -9.84108,-95.07626 -13.34707,-100.89901 -18.03669,18.49917 -39.13996,33.78467 -56.15446,53.93929 z m 192.32156,-74.84809 -0.005,0.31164 c 5.30281,0 10.61534,0.19478 15.90879,-0.0439 v 0.005 c 9.51,-0.38955 18.82577,-2.80479 27.32741,-7.08503 3.20408,-1.2271 5.69236,-3.81764 6.79284,-7.06559 1.09563,-3.25281 0.68659,-6.82213 -1.11997,-9.73886 -2.56134,-5.12754 -4.73798,-5.76541 -9.97746,-3.37448 -13.65872,7.05586 -28.79339,10.78088 -44.17113,10.86365 -9.73401,-0.35547 -19.49269,-0.34086 -29.20226,-1.04206 -22.51564,-1.91861 -45.17338,-1.28061 -67.5494,1.89417 -13.64376,1.87472 -27.54182,-0.28243 -39.97765,-6.20857 -2.98979,-1.42184 -6.17927,-2.37136 -9.46126,-2.81451 -3.07754,-0.61356 -6.24745,0.46746 -8.31216,2.83396 -2.05971,2.3665 -2.70257,5.65347 -1.67514,8.61894 0.37494,4.34843 3.55473,7.93719 7.82026,8.83311 6.81228,1.39267 13.71232,2.29344 20.65076,2.69285 9.98718,0.34086 20.00378,-0.45773 30.00505,-0.32626 34.31447,0.44312 68.63018,1.08588 102.94464,1.65072 z m -86.3253,-80.35546 -0.0389,0.39443 c -3.61793,0 -7.23599,0.005 -10.85392,0 -3.90041,-0.01 -7.81054,-0.1899 -11.70123,-0.0146 -3.48168,0.20451 -6.83185,1.39267 -9.66581,3.42322 -2.83397,2.03054 -5.03018,4.82561 -6.33996,8.05885 -0.71581,4.85479 5.92123,10.81504 13.78587,12.37812 0.81807,0.16069 1.63613,0.38468 2.46398,0.46746 5.81901,0.5746 11.67206,0.88137 17.45205,1.71404 v -0.005 c 23.03296,4.01733 46.40125,5.77999 69.77952,5.25905 11.19,-0.5746 23.33463,-0.0585 31.83627,-10.44007 3.72028,-4.54314 4.27538,-7.47945 -0.56972,-10.5813 v 0.005 c -3.19435,-2.2204 -6.79284,-3.79819 -10.59103,-4.63576 -8.73574,-1.47545 -17.54928,-2.49315 -26.39248,-3.03853 -19.71084,-1.20762 -39.44287,-2.01596 -59.16368,-2.98492 z m 110.78933,159.6613 c 15.02746,-14.56498 31.8799,-66.2193 27.19528,-81.7965 l -0.005,0.005 c -17.04317,8.2537 -36.04346,11.6379 -54.88793,9.7729 -0.81319,16.75521 3.48654,33.36582 12.33423,47.61791 3.321,5.4489 6.35466,11.07307 9.6804,16.51711 1.56308,2.57106 3.51572,4.90353 5.68264,7.88359 z M 249.2286,515.56612 c 6.74908,-9.2714 13.104,-17.96812 19.3992,-26.69913 v -0.005 c 0.84241,-1.1151 1.49975,-2.35677 1.95263,-3.68126 1.16379,-2.72688 1.87473,-5.62417 2.10846,-8.58479 -0.67198,-16.69288 0.93493,-32.7176 11.92037,-46.34765 2.73175,-3.38918 5.7411,-6.5591 9.2714,-10.56185 l -10.81503,-1.43643 c -10.34757,11.50165 -19.95517,22.19526 -29.57249,32.86844 -7.43557,8.25369 -15.00253,16.38996 -22.28752,24.77567 -4.98143,5.73138 -4.76715,5.85304 -0.78884,12.05189 3.59363,5.59986 6.96324,11.35068 10.66407,16.87737 2.4201,3.61794 5.25407,6.95838 8.14662,10.74199 z m 92.05207,-129.80583 c -21.49344,-9.13988 -43.89314,-13.03044 -66.53094,-20.42263 0.50155,15.18827 2.05971,30.32168 4.66007,45.29554 3.61307,0.78884 6.28648,1.62641 9.02794,1.92346 8.81852,0.94467 17.64652,1.89904 26.49969,2.36164 2.38607,0.005 4.66979,-0.97389 6.31078,-2.7123 6.59326,-8.22452 12.7774,-16.77515 20.02747,-26.44608 z m 53.27113,105.9975 h -0.005 c 26.24663,-4.24608 52.04949,-10.87349 77.09317,-19.79934 l -1.80653,-8.50202 -65.39656,-17.38348 c 1.02257,15.85019 -2.40552,31.67048 -9.88983,45.68447 z m 5.98455,-166.41773 c 6.62729,-5.53168 6.86103,-5.99914 3.63751,-11.87163 h -0.005 c -2.91187,-5.71181 -6.17927,-11.23376 -9.77788,-16.53706 -10.9903,-16.1955 -18.0504,-34.72833 -20.63206,-54.12877 -0.54538,-3.15047 -0.62816,-6.38384 -0.92032,-9.51972 -12.71382,-1.43643 -25.53484,-1.67016 -38.29353,-0.70607 22.30745,31.35883 44.13623,62.04202 65.99117,92.75763 z m -233.89482,214.7599 0.90571,1.865 77.98447,-20.74923 -23.85071,-35.1771 z m 87.33378,-306.94411 c -8.14662,-1.61182 -15.56723,-2.85353 -22.86717,-4.59188 -6.67603,-1.59225 -6.52507,-1.76764 -10.62019,3.91013 -11.61845,16.10326 -19.09254,34.52888 -29.0265,51.57205 -2.74632,4.71355 -0.73527,8.24883 2.57593,12.66021 6.9681,-6.88533 13.41065,-13.35705 19.97013,-19.70211 12.18327,-11.784 24.35682,-23.57273 36.71536,-35.17211 v -0.01 c 2.76092,-1.94778 4.05137,-5.38558 3.25281,-8.66756 z m 243.68044,236.43784 c 17.87588,3.54003 36.27283,3.52058 54.13874,-0.0536 -6.88047,-16.85369 -15.03244,-33.16138 -24.37677,-48.7872 -10.81503,16.43983 -22.69638,30.3703 -29.76197,48.8408 z m -311.55644,-191.97251 1.87959,0.33599 c 9.95315,-18.1975 19.90157,-36.38877 30.54607,-55.8478 l -0.005,-0.005 c -4.32898,-0.97876 -8.7163,-1.6653 -13.14264,-2.04513 -3.36475,-0.3506 -6.76366,0.21426 -9.83622,1.63613 -3.07256,1.41698 -5.70694,3.63751 -7.62555,6.42759 -8.34619,15.29921 -9.01822,33.62885 -1.81626,49.49775 z m 145.97391,137.92103 c 16.7602,9.60249 35.27433,15.74798 54.45039,18.07534 -7.90802,-16.6343 -19.87664,-31.01853 -34.80686,-41.81386 -7.27489,7.27974 -13.85319,15.22691 -19.64353,23.73852 z M 290.82905,134.4022 c 24.05515,4.92783 48.49924,7.74235 73.04679,8.40952 3.06283,0.0389 6.10622,-0.53077 8.95003,-1.6653 2.40065,-0.54538 4.19747,-2.53204 4.50425,-4.97172 0.30677,-2.43468 -0.94467,-4.80616 -3.13589,-5.92609 -1.8893,-1.12483 -4.00748,-1.81626 -6.2037,-2.02568 -18.93672,-3.20407 -38.28356,-3.15533 -57.21155,0.14608 -6.92921,0.93494 -13.66371,2.97034 -19.95018,6.03318 z m 205.31086,319.17301 2.3958,0.59407 25.69066,-39.89538 c -5.88234,-12.46089 -11.71095,-24.80934 -17.53931,-37.15915 l -1.67016,0.47234 c -2.96062,25.32541 -5.92123,50.65706 -8.87699,75.98746 z M 445.56139,391.689 c -7.6061,-23.32964 -18.87439,-45.30551 -33.37455,-65.10486 -6.65646,6.67603 -6.71492,7.09962 -2.35191,13.62506 7.70832,11.53082 15.31417,23.13518 23.15887,34.56752 3.96859,5.79458 8.36563,11.28736 12.56796,16.91104 z M 294.20228,510.2981 277.13542,489.75829 260.09225,517.4659 c 10.33299,-1.81139 18.75721,-3.20407 27.13794,-4.81103 2.37622,-0.62328 4.70868,-1.40725 6.97309,-2.35677 z m 16.25409,-83.31109 c -14.89034,1.6946 -28.93924,22.13169 -25.05366,36.4137 8.41438,-12.22715 16.62432,-24.15239 25.05366,-36.40871 z m 15.62083,82.66287 0.32138,1.67515 v 0.005 c 12.58292,2.1961 25.51613,-0.70607 35.95121,-8.06384 z M 177.6226,310.93339 c 6.70034,-2.75119 6.70034,-2.75119 4.76716,-7.84955 z m 307.70452,156.98117 -0.14608,-2.05972 c -1.1151,0.12179 -2.23511,0.20939 -3.33072,0.42364 v -0.005 c -0.073,0.43825 -0.0682,0.88624 0.0194,1.31963 1.14432,0.17529 2.3033,0.23373 3.45725,0.32137 z m -4.08053,-9.39319 2.13762,-1.86987 -4.07567,-2.46884 -0.78885,0.72067 z"
       id="path67"
       style="stroke-width:1.24657;fill:#ffffff" />
  </g>
</svg>
