<?xml version="1.0" encoding="UTF-8" standalone="no"?>
<svg
   width="700pt"
   height="700pt"
   version="1.1"
   viewBox="0 0 700 700"
   id="svg79"
   sodipodi:docname="spellbook.svg"
   inkscape:version="1.1.2 (0a00cf5339, 2022-02-04, custom)"
   xmlns:inkscape="http://www.inkscape.org/namespaces/inkscape"
   xmlns:sodipodi="http://sodipodi.sourceforge.net/DTD/sodipodi-0.dtd"
   xmlns="http://www.w3.org/2000/svg"
   xmlns:svg="http://www.w3.org/2000/svg">
  <sodipodi:namedview
     id="namedview81"
     pagecolor="#ffffff"
     bordercolor="#666666"
     borderopacity="1.0"
     inkscape:pageshadow="2"
     inkscape:pageopacity="0.0"
     inkscape:pagecheckerboard="0"
     inkscape:document-units="pt"
     showgrid="false"
     inkscape:zoom="0.77892857"
     inkscape:cx="466.02476"
     inkscape:cy="466.66667"
     inkscape:window-width="1920"
     inkscape:window-height="1080"
     inkscape:window-x="0"
     inkscape:window-y="0"
     inkscape:window-maximized="1"
     inkscape:current-layer="svg79" />
  <defs
     id="defs29">
    <symbol
       id="i"
       overflow="visible">
      <path
         d="m29.312-1.75c-1.5117 0.78125-3.0898 1.3711-4.7344 1.7656-1.6367 0.40625-3.3398 0.60938-5.1094 0.60938-5.3125 0-9.5273-1.4844-12.641-4.4531-3.1055-2.9688-4.6562-7-4.6562-12.094s1.5508-9.125 4.6562-12.094c3.1133-2.9688 7.3281-4.4531 12.641-4.4531 1.7695 0 3.4727 0.19922 5.1094 0.59375 1.6445 0.39844 3.2227 0.99219 4.7344 1.7812v6.5938c-1.5312-1.0391-3.0391-1.8008-4.5156-2.2812-1.4805-0.48828-3.0391-0.73438-4.6719-0.73438-2.9375 0-5.2461 0.94531-6.9219 2.8281-1.6797 1.875-2.5156 4.4648-2.5156 7.7656 0 3.293 0.83594 5.8828 2.5156 7.7656 1.6758 1.875 3.9844 2.8125 6.9219 2.8125 1.6328 0 3.1914-0.23828 4.6719-0.71875 1.4766-0.48828 2.9844-1.2539 4.5156-2.2969z"
         id="path2" />
    </symbol>
    <symbol
       id="d"
       overflow="visible">
      <path
         d="m21.453-17.406c-0.67969-0.3125-1.3516-0.53906-2.0156-0.6875-0.65625-0.15625-1.3203-0.23438-1.9844-0.23438-1.9688 0-3.4844 0.63281-4.5469 1.8906-1.0547 1.2617-1.5781 3.0703-1.5781 5.4219v11.016h-7.6562v-23.922h7.6562v3.9219c0.97656-1.5625 2.1016-2.7031 3.375-3.4219 1.2812-0.71875 2.8125-1.0781 4.5938-1.0781 0.25 0 0.52344 0.011719 0.82812 0.03125 0.30078 0.023438 0.73438 0.070312 1.2969 0.14062z"
         id="path5" />
    </symbol>
    <symbol
       id="c"
       overflow="visible">
      <path
         d="m27.562-12.031v2.1875h-17.891c0.1875 1.793 0.83203 3.1367 1.9375 4.0312 1.1133 0.89844 2.6719 1.3438 4.6719 1.3438 1.6016 0 3.25-0.23438 4.9375-0.70312 1.6875-0.47656 3.4219-1.2031 5.2031-2.1719v5.8906c-1.8047 0.6875-3.6094 1.2031-5.4219 1.5469-1.8125 0.35156-3.6211 0.53125-5.4219 0.53125-4.3359 0-7.7031-1.0977-10.109-3.2969-2.3984-2.207-3.5938-5.2969-3.5938-9.2656 0-3.9062 1.1758-6.9727 3.5312-9.2031 2.3633-2.2383 5.6094-3.3594 9.7344-3.3594 3.7578 0 6.7695 1.1367 9.0312 3.4062 2.2578 2.2617 3.3906 5.2812 3.3906 9.0625zm-7.8594-2.5312c0-1.457-0.42969-2.6289-1.2812-3.5156-0.84375-0.89453-1.9492-1.3438-3.3125-1.3438-1.4922 0-2.6992 0.41797-3.625 1.25-0.91797 0.83594-1.4922 2.0391-1.7188 3.6094z"
         id="path8" />
    </symbol>
    <symbol
       id="a"
       overflow="visible">
      <path
         d="m14.391-10.766c-1.5938 0-2.793 0.27344-3.5938 0.8125-0.80469 0.54297-1.2031 1.3398-1.2031 2.3906 0 0.96875 0.32031 1.7305 0.96875 2.2812 0.64453 0.54297 1.5469 0.8125 2.7031 0.8125 1.4375 0 2.6445-0.51562 3.625-1.5469 0.98828-1.0312 1.4844-2.3203 1.4844-3.875v-0.875zm11.688-2.8906v13.656h-7.7031v-3.5469c-1.0312 1.4492-2.1875 2.5078-3.4688 3.1719s-2.8398 1-4.6719 1c-2.4805 0-4.4961-0.72266-6.0469-2.1719-1.543-1.4453-2.3125-3.3203-2.3125-5.625 0-2.8125 0.96094-4.8672 2.8906-6.1719 1.9375-1.3125 4.9688-1.9688 9.0938-1.9688h4.5156v-0.60938c0-1.207-0.48047-2.0938-1.4375-2.6562-0.94922-0.5625-2.4375-0.84375-4.4688-0.84375-1.6367 0-3.1562 0.16797-4.5625 0.5-1.4062 0.32422-2.7188 0.8125-3.9375 1.4688v-5.8281c1.6445-0.40625 3.2891-0.70703 4.9375-0.90625 1.6562-0.20703 3.3047-0.3125 4.9531-0.3125 4.3203 0 7.4375 0.85547 9.3438 2.5625 1.9141 1.6992 2.875 4.4609 2.875 8.2812z"
         id="path11" />
    </symbol>
    <symbol
       id="h"
       overflow="visible">
      <path
         d="m12.031-30.719v6.7969h7.875v5.4688h-7.875v10.141c0 1.1172 0.21875 1.8711 0.65625 2.2656 0.4375 0.38672 1.3125 0.57812 2.625 0.57812h3.9375v5.4688h-6.5625c-3.0234 0-5.1641-0.62891-6.4219-1.8906-1.2617-1.2578-1.8906-3.3984-1.8906-6.4219v-10.141h-3.7969v-5.4688h3.7969v-6.7969z"
         id="path14" />
    </symbol>
    <symbol
       id="b"
       overflow="visible">
      <path
         d="m19.953-20.422v-12.812h7.6875v33.234h-7.6875v-3.4531c-1.0547 1.4062-2.2148 2.4375-3.4844 3.0938-1.2734 0.65625-2.7422 0.98438-4.4062 0.98438-2.9492 0-5.3711-1.1719-7.2656-3.5156-1.8867-2.3438-2.8281-5.3594-2.8281-9.0469s0.94141-6.7031 2.8281-9.0469c1.8945-2.3438 4.3164-3.5156 7.2656-3.5156 1.6562 0 3.1172 0.33594 4.3906 1 1.2812 0.65625 2.4453 1.6836 3.5 3.0781zm-5.0469 15.484c1.6445 0 2.8945-0.59766 3.75-1.7969 0.86328-1.1953 1.2969-2.9297 1.2969-5.2031 0-2.2812-0.43359-4.0195-1.2969-5.2188-0.85547-1.1953-2.1055-1.7969-3.75-1.7969-1.625 0-2.8711 0.60156-3.7344 1.7969-0.85547 1.1992-1.2812 2.9375-1.2812 5.2188 0 2.2734 0.42578 4.0078 1.2812 5.2031 0.86328 1.1992 2.1094 1.7969 3.7344 1.7969z"
         id="path17" />
    </symbol>
    <symbol
       id="g"
       overflow="visible">
      <path
         d="m16.406-4.9375c1.6328 0 2.8828-0.59766 3.75-1.7969 0.86328-1.1953 1.2969-2.9297 1.2969-5.2031 0-2.2812-0.43359-4.0195-1.2969-5.2188-0.86719-1.1953-2.1172-1.7969-3.75-1.7969-1.6367 0-2.8906 0.60547-3.7656 1.8125-0.875 1.1992-1.3125 2.9336-1.3125 5.2031 0 2.2617 0.4375 3.9961 1.3125 5.2031 0.875 1.1992 2.1289 1.7969 3.7656 1.7969zm-5.0781-15.484c1.0508-1.3945 2.2188-2.4219 3.5-3.0781 1.2812-0.66406 2.7539-1 4.4219-1 2.9453 0 5.3672 1.1719 7.2656 3.5156 1.8945 2.3438 2.8438 5.3594 2.8438 9.0469s-0.94922 6.7031-2.8438 9.0469c-1.8984 2.3438-4.3203 3.5156-7.2656 3.5156-1.668 0-3.1406-0.33594-4.4219-1s-2.4492-1.6914-3.5-3.0781v3.4531h-7.6562v-33.234h7.6562z"
         id="path20" />
    </symbol>
    <symbol
       id="f"
       overflow="visible">
      <path
         d="m0.53125-23.922h7.6562l6.4219 16.234 5.4688-16.234h7.6562l-10.062 26.188c-1.0117 2.6641-2.1953 4.5234-3.5469 5.5781-1.3438 1.0625-3.1211 1.5938-5.3281 1.5938h-4.4219v-5.0156h2.3906c1.3008 0 2.2422-0.21094 2.8281-0.625 0.59375-0.40625 1.0547-1.1484 1.3906-2.2188l0.20312-0.65625z"
         id="path23" />
    </symbol>
    <symbol
       id="e"
       overflow="visible">
      <path
         d="m12.234-25.672v19.453h2.9531c3.3633 0 5.9297-0.83203 7.7031-2.5 1.7695-1.6641 2.6562-4.0859 2.6562-7.2656 0-3.1562-0.88672-5.5547-2.6562-7.2031-1.7617-1.6562-4.3281-2.4844-7.7031-2.4844zm-8.2188-6.2188h8.6719c4.8438 0 8.4453 0.34375 10.812 1.0312 2.375 0.6875 4.4102 1.8594 6.1094 3.5156 1.4883 1.4375 2.5977 3.1016 3.3281 4.9844 0.72656 1.875 1.0938 4 1.0938 6.375 0 2.4062-0.36719 4.5586-1.0938 6.4531-0.73047 1.8867-1.8398 3.5469-3.3281 4.9844-1.7109 1.6484-3.7617 2.8203-6.1562 3.5156-2.3984 0.6875-5.9844 1.0312-10.766 1.0312h-8.6719z"
         id="path26" />
    </symbol>
  </defs>
  <g
     id="g77"
     transform="matrix(1.3721416,0,0,1.3721416,-136.25124,-22.193409)"
     style="fill:#ffffff">
    <path
       d="m 560,70 h 17.5 v 35 H 560 Z"
       id="path31"
       style="fill:#ffffff" />
    <path
       d="m 533.75,17.5 h 17.5 v 26.25 h -17.5 z"
       id="path33"
       style="fill:#ffffff" />
    <path
       d="m 586.25,17.5 h 17.5 v 35 h -17.5 z"
       id="path35"
       style="fill:#ffffff" />
    <path
       d="m 516.97,235.31 c -8.375,10.648 -11.414,24.543 -8.2422,37.715 2.2695,9.9102 7.9844,18.695 16.133,24.781 8.1484,6.0859 18.191,9.0781 28.344,8.4414 9.207,-0.25391 18.055,-3.6523 25.07,-9.625 7.0117,-5.9766 11.773,-14.168 13.488,-23.223 6.8438,-25.953 -2.4062,-55.273 -21.043,-66.77 -7.4805,-4.3867 -12.734,-11.758 -14.445,-20.258 -1.4531,-7.9531 0.54687,-16.145 5.5039,-22.531 3.1484,-3.8594 3.5234,-9.2891 0.93359,-13.547 l -20.211,-32.293 v 9.3906 -0.004 c 0.0273,10.402 -4.1055,20.383 -11.48,27.719 l -8.9609,8.9531 c -3.4844,3.4609 -5.6836,8 -6.2422,12.879 -0.5586,4.879 0.55859,9.8008 3.1719,13.957 4.2812,6.7109 6.3828,14.578 6.0234,22.527 -0.36328,7.9492 -3.1719,15.594 -8.043,21.887 z"
       id="path37"
       style="fill:#ffffff" />
    <path
       d="m 373.45,323.43 c 3.8047,-2.8711 6.2227,-7.2188 6.6523,-11.969 0.14453,-1.7422 0.0234,-3.5 -0.35156,-5.207 h -38.5 c -3.457,0 -6.5938,-2.0352 -7.9961,-5.1992 l -27.004,-60.758 -27.004,60.762 v -0.004 c -1.4023,3.1641 -4.5391,5.1992 -7.9961,5.1992 h -48.879 l 37.562,37.562 h 0.004 c 2.4258,2.4258 3.2148,6.0469 2.0117,9.2578 l -18.926,50.453 59.676,-26.52 c 2.2617,-1.0078 4.8398,-1.0078 7.1016,0 l 12.426,5.5312 v -0.004 c 12.641,-23.145 30.109,-43.305 51.223,-59.105 z"
       id="path39"
       style="fill:#ffffff" />
    <path
       d="m 306.25,394.57 -75.199,33.426 v -0.004 c -3.2188,1.4375 -6.9883,0.79688 -9.5586,-1.6211 -2.5664,-2.4219 -3.4297,-6.1445 -2.1914,-9.4453 l 24.281,-64.75 -48.52,-48.52 c -2.4805,-2.5039 -3.2188,-6.2539 -1.8672,-9.5117 1.3516,-3.2578 4.5273,-5.3867 8.0547,-5.3984 h 64.32 l 32.68,-73.551 h 0.004 c 1.4023,-3.1641 4.5352,-5.2031 7.9961,-5.2031 3.4609,0 6.5938,2.0391 7.9961,5.2031 l 32.684,73.551 h 21.988 c -6.6367,-10.684 -10.07,-23.047 -9.8945,-35.625 0.17969,-12.574 3.9609,-24.836 10.898,-35.328 -35.508,-19.75 -78.156,-21.938 -115.5,-5.9297 -37.344,16.004 -65.168,48.406 -75.352,87.738 -10.184,39.332 -1.5781,81.164 23.309,113.28 24.887,32.117 63.242,50.898 103.87,50.863 0.55078,0 1.0781,-0.0703 1.6289,-0.0781 -1.0625,-5.7461 -1.6094,-11.578 -1.6289,-17.422 0.008,-16.324 2.9961,-32.508 8.8203,-47.758 z"
       id="path41"
       style="fill:#ffffff" />
    <path
       d="M 148.75,122.5 H 455 V 70 H 148.75 V 52.5 h 315 c 2.3203,0 4.5469,0.92188 6.1875,2.5625 1.6406,1.64062 2.5625,3.8672 2.5625,6.1875 V 122.5 H 490 V 35 H 148.75 c -15.629,0 -30.074,8.3398 -37.887,21.875 -7.8164,13.535 -7.8164,30.215 0,43.75 7.8125,13.535 22.258,21.875 37.887,21.875 z m 0,-35 H 437.5 V 105 H 148.75 Z"
       id="path43"
       style="fill:#ffffff" />
    <path
       d="m 402.5,525 h 0.0703 c 24.898,-0.48047 47.922,-13.332 61.398,-34.273 33.906,-50.602 11.445,-69.309 -12.363,-89.102 -6.9844,-5.8281 -10.555,-14.785 -9.4961,-23.82 1.0586,-9.0352 6.6055,-16.926 14.746,-20.98 5.1602,-2.582 8.9648,-7.2539 10.445,-12.832 1.4805,-5.5742 0.49609,-11.52 -2.7031,-16.32 l -16.527,-24.789 c -20.238,-30.309 -28.426,-67.082 -22.969,-103.11 l -21.727,10.809 c -13.539,6.7695 -23.152,19.457 -26.016,34.32 -2.8633,14.863 1.3555,30.211 11.41,41.523 6.5039,7.3086 9.6758,16.992 8.75,26.73 -0.9375,9.5898 -5.8164,18.355 -13.473,24.203 -27.512,20.914 -60.297,56.789 -60.297,108.89 0,20.887 8.2969,40.918 23.066,55.684 14.766,14.77 34.797,23.066 55.684,23.066 z m -14.938,-154.94 12.371,12.371 -17.5,17.5 -12.371,-12.371 z m -30.711,35.352 13.039,11.672 c -7.5508,8.4414 -11.531,19.477 -11.109,30.789 0.42188,11.316 5.2109,22.023 13.363,29.879 8.1523,7.8555 19.035,12.246 30.355,12.246 v 17.5 c -15.852,0 -31.086,-6.1445 -42.5,-17.145 -11.414,-11.0005 -18.117,-25.996 -18.707,-41.836 -0.58594,-15.84 4.9883,-31.293 15.559,-43.105 z"
       id="path45"
       style="fill:#ffffff" />
    <path
       d="m 148.75,525 h 198.52 c -15.629,-10.859 -27.637,-26.168 -34.465,-43.934 -2.3008,0.12109 -4.4727,0.18359 -6.5547,0.18359 -46.398,0.0937 -90.18,-21.469 -118.39,-58.301 -28.211,-36.836 -37.621,-84.723 -25.441,-129.5 12.18,-44.77 44.551,-81.293 87.531,-98.758 42.984,-17.469 91.656,-13.879 131.61,9.7031 4.2422,-3.7383 8.9492,-6.9258 14,-9.4766 l 38,-19.004 c 3.1055,-1.5547 6.8359,-1.125 9.5078,1.0938 2.6719,2.2188 3.7773,5.8047 2.8203,9.1445 -10.414,36.383 -4.2969,75.5 16.723,106.97 l 16.527,24.781 c 5.9922,8.9844 7.8359,20.113 5.0586,30.551 -2.7773,10.438 -9.9062,19.176 -19.574,23.996 -2.8516,1.4219 -4.793,4.1836 -5.168,7.3477 -0.375,3.1641 0.87109,6.3008 3.3125,8.3477 23.266,19.363 58.414,48.625 15.699,112.32 -6.3359,9.4805 -14.277,17.777 -23.469,24.527 h 52.5 v -219.38 c -7.8516,-7.8945 -13.336,-17.828 -15.836,-28.676 -4.3633,-18.352 -0.0898,-37.691 11.602,-52.5 2.625,-3.4609 4.1211,-7.6484 4.2773,-11.988 0.15625,-4.3398 -1.0312,-8.625 -3.4023,-12.266 -4.3984,-7.0117 -6.4453,-15.246 -5.8398,-23.5 0.60547,-8.2578 3.8281,-16.105 9.1992,-22.402 v -14.289 h -358.75 c -16.48,0.004 -32.258,-6.6602 -43.75,-18.473 v 359.72 c 0.0156,11.598 4.6289,22.719 12.828,30.922 8.2031,8.1992 19.324,12.812 30.922,12.828 z"
       id="path47"
       style="fill:#ffffff" />
  </g>
</svg>
